<mxfile host="app.diagrams.net" modified="2023-04-05T12:16:25.848Z" agent="Mozilla/5.0 (Windows NT 10.0; Win64; x64) AppleWebKit/537.36 (KHTML, like Gecko) Chrome/111.0.0.0 Safari/537.36" etag="ayHU7d9Kni6e_38E6T_-" version="21.1.4" type="device">
  <diagram name="Page-1" id="fOWAgNkVk0fnSY1xUM_Z">
    <mxGraphModel dx="801" dy="1806" grid="1" gridSize="10" guides="1" tooltips="1" connect="1" arrows="1" fold="1" page="1" pageScale="1" pageWidth="827" pageHeight="1169" math="0" shadow="0">
      <root>
        <mxCell id="0" />
        <mxCell id="1" parent="0" />
        <mxCell id="5rfvfLusaz2tfitiwRje-68" style="edgeStyle=orthogonalEdgeStyle;rounded=0;orthogonalLoop=1;jettySize=auto;html=1;" parent="1" source="5rfvfLusaz2tfitiwRje-69" edge="1">
          <mxGeometry relative="1" as="geometry">
            <Array as="points">
              <mxPoint x="755" y="395" />
            </Array>
            <mxPoint x="490" y="395" as="targetPoint" />
          </mxGeometry>
        </mxCell>
        <mxCell id="5rfvfLusaz2tfitiwRje-69" value="Service de base de temps" style="rounded=1;whiteSpace=wrap;html=1;" parent="1" vertex="1">
          <mxGeometry x="710" y="329.98" width="90" height="30" as="geometry" />
        </mxCell>
        <mxCell id="5rfvfLusaz2tfitiwRje-70" value="" style="edgeStyle=orthogonalEdgeStyle;rounded=0;orthogonalLoop=1;jettySize=auto;html=1;" parent="1" source="5rfvfLusaz2tfitiwRje-71" target="5rfvfLusaz2tfitiwRje-73" edge="1">
          <mxGeometry relative="1" as="geometry" />
        </mxCell>
        <mxCell id="5rfvfLusaz2tfitiwRje-71" value="ProcessusLectureNFC" style="rounded=1;whiteSpace=wrap;html=1;" parent="1" vertex="1">
          <mxGeometry x="329" y="480" width="170" height="30" as="geometry" />
        </mxCell>
        <mxCell id="5rfvfLusaz2tfitiwRje-72" value="" style="edgeStyle=orthogonalEdgeStyle;rounded=0;orthogonalLoop=1;jettySize=auto;html=1;startArrow=classic;startFill=1;" parent="1" source="5rfvfLusaz2tfitiwRje-73" target="5rfvfLusaz2tfitiwRje-95" edge="1">
          <mxGeometry relative="1" as="geometry" />
        </mxCell>
        <mxCell id="5rfvfLusaz2tfitiwRje-73" value="ProcessusCOMAvecServer" style="rounded=1;whiteSpace=wrap;html=1;" parent="1" vertex="1">
          <mxGeometry x="590" y="480" width="170" height="30" as="geometry" />
        </mxCell>
        <mxCell id="5rfvfLusaz2tfitiwRje-74" value="" style="edgeStyle=orthogonalEdgeStyle;rounded=0;orthogonalLoop=1;jettySize=auto;html=1;" parent="1" source="5rfvfLusaz2tfitiwRje-75" target="5rfvfLusaz2tfitiwRje-71" edge="1">
          <mxGeometry relative="1" as="geometry" />
        </mxCell>
        <mxCell id="5rfvfLusaz2tfitiwRje-75" value="InterfaceI2C" style="rounded=1;whiteSpace=wrap;html=1;" parent="1" vertex="1">
          <mxGeometry x="369" y="380" width="90" height="30" as="geometry" />
        </mxCell>
        <mxCell id="5rfvfLusaz2tfitiwRje-76" value="" style="edgeStyle=orthogonalEdgeStyle;rounded=0;orthogonalLoop=1;jettySize=auto;html=1;" parent="1" source="5rfvfLusaz2tfitiwRje-77" target="5rfvfLusaz2tfitiwRje-75" edge="1">
          <mxGeometry relative="1" as="geometry" />
        </mxCell>
        <mxCell id="5rfvfLusaz2tfitiwRje-77" value="PiloteI2C" style="rounded=1;whiteSpace=wrap;html=1;" parent="1" vertex="1">
          <mxGeometry x="369" y="280" width="90" height="30" as="geometry" />
        </mxCell>
        <mxCell id="5rfvfLusaz2tfitiwRje-78" value="" style="edgeStyle=orthogonalEdgeStyle;rounded=0;orthogonalLoop=1;jettySize=auto;html=1;" parent="1" source="5rfvfLusaz2tfitiwRje-79" target="5rfvfLusaz2tfitiwRje-69" edge="1">
          <mxGeometry relative="1" as="geometry" />
        </mxCell>
        <mxCell id="5rfvfLusaz2tfitiwRje-79" value="piloteTimer" style="rounded=1;whiteSpace=wrap;html=1;" parent="1" vertex="1">
          <mxGeometry x="710" y="280" width="90" height="30" as="geometry" />
        </mxCell>
        <mxCell id="5rfvfLusaz2tfitiwRje-80" style="edgeStyle=orthogonalEdgeStyle;rounded=0;orthogonalLoop=1;jettySize=auto;html=1;entryX=0.25;entryY=0;entryDx=0;entryDy=0;" parent="1" source="5rfvfLusaz2tfitiwRje-81" target="5rfvfLusaz2tfitiwRje-73" edge="1">
          <mxGeometry relative="1" as="geometry">
            <Array as="points">
              <mxPoint x="515" y="440" />
              <mxPoint x="633" y="440" />
            </Array>
          </mxGeometry>
        </mxCell>
        <mxCell id="5rfvfLusaz2tfitiwRje-81" value="Interface-NOW" style="rounded=1;whiteSpace=wrap;html=1;" parent="1" vertex="1">
          <mxGeometry x="470" y="380" width="90" height="30" as="geometry" />
        </mxCell>
        <mxCell id="5rfvfLusaz2tfitiwRje-82" value="" style="edgeStyle=orthogonalEdgeStyle;rounded=0;orthogonalLoop=1;jettySize=auto;html=1;" parent="1" source="5rfvfLusaz2tfitiwRje-83" target="5rfvfLusaz2tfitiwRje-81" edge="1">
          <mxGeometry relative="1" as="geometry" />
        </mxCell>
        <mxCell id="5rfvfLusaz2tfitiwRje-83" value="Pilote-NOW" style="rounded=1;whiteSpace=wrap;html=1;" parent="1" vertex="1">
          <mxGeometry x="470" y="280" width="90" height="30" as="geometry" />
        </mxCell>
        <mxCell id="5rfvfLusaz2tfitiwRje-84" style="edgeStyle=orthogonalEdgeStyle;rounded=0;orthogonalLoop=1;jettySize=auto;html=1;" parent="1" source="5rfvfLusaz2tfitiwRje-85" edge="1">
          <mxGeometry relative="1" as="geometry">
            <mxPoint x="560" y="395" as="targetPoint" />
            <Array as="points">
              <mxPoint x="635" y="395" />
            </Array>
          </mxGeometry>
        </mxCell>
        <mxCell id="5rfvfLusaz2tfitiwRje-85" value="ServiceProtocole-NOW" style="rounded=1;whiteSpace=wrap;html=1;" parent="1" vertex="1">
          <mxGeometry x="570" y="329.98" width="130" height="30" as="geometry" />
        </mxCell>
        <mxCell id="5rfvfLusaz2tfitiwRje-86" style="edgeStyle=orthogonalEdgeStyle;rounded=0;orthogonalLoop=1;jettySize=auto;html=1;entryX=0.5;entryY=0;entryDx=0;entryDy=0;" parent="1" target="5rfvfLusaz2tfitiwRje-85" edge="1">
          <mxGeometry relative="1" as="geometry">
            <mxPoint x="560" y="319.98" as="targetPoint" />
            <mxPoint x="560" y="295" as="sourcePoint" />
            <Array as="points">
              <mxPoint x="635" y="295" />
            </Array>
          </mxGeometry>
        </mxCell>
        <mxCell id="5rfvfLusaz2tfitiwRje-91" value="" style="edgeStyle=orthogonalEdgeStyle;rounded=0;orthogonalLoop=1;jettySize=auto;html=1;" parent="1" source="5rfvfLusaz2tfitiwRje-92" target="5rfvfLusaz2tfitiwRje-94" edge="1">
          <mxGeometry relative="1" as="geometry" />
        </mxCell>
        <mxCell id="5rfvfLusaz2tfitiwRje-92" value="PiloteMoteurDC" style="rounded=1;whiteSpace=wrap;html=1;" parent="1" vertex="1">
          <mxGeometry x="835" y="280" width="100" height="30" as="geometry" />
        </mxCell>
        <mxCell id="5rfvfLusaz2tfitiwRje-93" value="" style="edgeStyle=orthogonalEdgeStyle;rounded=0;orthogonalLoop=1;jettySize=auto;html=1;" parent="1" source="5rfvfLusaz2tfitiwRje-94" target="5rfvfLusaz2tfitiwRje-95" edge="1">
          <mxGeometry relative="1" as="geometry" />
        </mxCell>
        <mxCell id="5rfvfLusaz2tfitiwRje-94" value="InterfaceMoteurDC" style="rounded=1;whiteSpace=wrap;html=1;" parent="1" vertex="1">
          <mxGeometry x="830" y="380" width="110" height="30" as="geometry" />
        </mxCell>
        <mxCell id="5rfvfLusaz2tfitiwRje-95" value="ProcessusBarrerDebarrer" style="rounded=1;whiteSpace=wrap;html=1;" parent="1" vertex="1">
          <mxGeometry x="805" y="480" width="160" height="30" as="geometry" />
        </mxCell>
      </root>
    </mxGraphModel>
  </diagram>
</mxfile>
